<?xml version="1.0" encoding="utf-8"?>
<!-- Generator: Adobe Illustrator 18.0.0, SVG Export Plug-In . SVG Version: 6.00 Build 0)  -->
<!DOCTYPE svg PUBLIC "-//W3C//DTD SVG 1.1//EN" "http://www.w3.org/Graphics/SVG/1.1/DTD/svg11.dtd">
<svg version="1.1" id="Layer_1" xmlns="http://www.w3.org/2000/svg" xmlns:xlink="http://www.w3.org/1999/xlink" x="0px" y="0px"
	 viewBox="0 0 458.8 86.6" enable-background="new 0 0 458.8 86.6" xml:space="preserve">
<filter  width="140%" height="130%" filterUnits="objectBoundingBox" id="AI_Shadow_2" x="-15%" y="-15%">
	<feGaussianBlur  stdDeviation="6" result="blur" in="SourceAlpha"></feGaussianBlur>
	<feOffset  dy="8" dx="8" result="offsetBlurredAlpha" in="blur"></feOffset>
	<feMerge>
		<feMergeNode  in="offsetBlurredAlpha"></feMergeNode>
		<feMergeNode  in="SourceGraphic"></feMergeNode>
	</feMerge>
</filter>
<g filter="url(#AI_Shadow_2)">
	<path fill="#E4E5F3" d="M13.2,9.1c3.4-0.6,8.1-1,14.8-1c6.8,0,11.6,1.3,14.8,3.9c3.1,2.4,5.2,6.5,5.2,11.2s-1.6,8.8-4.5,11.5
		c-3.7,3.5-9.3,5.1-15.8,5.1c-1.4,0-2.7-0.1-3.7-0.2V57H13.2V9.1z M24,31.2c0.9,0.2,2.1,0.3,3.7,0.3c5.8,0,9.4-3,9.4-7.9
		c0-4.5-3.1-7.1-8.6-7.1c-2.2,0-3.7,0.2-4.5,0.4V31.2z"/>
	<path fill="#E4E5F3" d="M54,33.4c0-5.2-0.1-8.6-0.3-11.6h9.4l0.4,6.5h0.3c1.8-5.1,6.1-7.3,9.5-7.3c1,0,1.5,0,2.3,0.1v10.3
		c-0.8-0.1-1.7-0.3-3-0.3c-4,0-6.8,2.2-7.5,5.5c-0.1,0.7-0.2,1.6-0.2,2.4V57H54V33.4z"/>
	<path fill="#E4E5F3" d="M89.2,42.9c0.4,4.5,4.8,6.7,9.9,6.7c3.7,0,6.8-0.5,9.7-1.4l1.4,7.4c-3.6,1.4-8,2.2-12.7,2.2
		c-12,0-18.8-6.9-18.8-17.9c0-8.9,5.5-18.8,17.8-18.8c11.4,0,15.7,8.9,15.7,17.6c0,1.9-0.2,3.5-0.4,4.3H89.2z M102.1,35.4
		c0-2.7-1.2-7.1-6.2-7.1c-4.6,0-6.5,4.2-6.8,7.1H102.1z"/>
	<path fill="#E4E5F3" d="M118.7,47.4c2,1.2,6.2,2.7,9.4,2.7c3.3,0,4.7-1.2,4.7-3s-1.1-2.7-5.2-4c-7.3-2.4-10.1-6.4-10-10.6
		c0-6.6,5.6-11.5,14.3-11.5c4.1,0,7.8,0.9,9.9,2l-1.9,7.6c-1.6-0.9-4.6-2-7.6-2c-2.7,0-4.2,1.1-4.2,2.9c0,1.7,1.4,2.5,5.7,4
		c6.7,2.3,9.5,5.7,9.6,10.9c0,6.6-5.2,11.4-15.3,11.4c-4.6,0-8.7-1-11.4-2.4L118.7,47.4z"/>
	<path fill="#E4E5F3" d="M158.5,42.9c0.4,4.5,4.8,6.7,9.9,6.7c3.7,0,6.8-0.5,9.7-1.4l1.4,7.4c-3.6,1.4-8,2.2-12.7,2.2
		c-12,0-18.8-6.9-18.8-17.9c0-8.9,5.5-18.8,17.8-18.8c11.4,0,15.7,8.9,15.7,17.6c0,1.9-0.2,3.5-0.4,4.3H158.5z M171.3,35.4
		c0-2.7-1.2-7.1-6.2-7.1c-4.6,0-6.5,4.2-6.8,7.1H171.3z"/>
	<path fill="#E4E5F3" d="M188,33c0-4.4-0.1-8.1-0.3-11.2h9.5l0.5,4.8h0.2c1.4-2.2,5-5.6,10.9-5.6c7.2,0,12.6,4.8,12.6,15.1V57h-10.9
		V37.5c0-4.5-1.6-7.6-5.5-7.6c-3,0-4.8,2.1-5.5,4.1c-0.3,0.6-0.4,1.7-0.4,2.7V57H188V33z"/>
	<path fill="#E4E5F3" d="M256.7,56.1c-1.7,0.7-4.6,1.4-8.1,1.5l-1.4,2.5c2.7,0.3,5.2,2.3,5.2,5.2c0,4.7-4.1,6.3-8.7,6.3
		c-2.3,0-4.4-0.6-5.8-1.4l1.4-4.1c1.3,0.7,2.8,1.2,4,1.2c1.3,0,2.6-0.5,2.5-1.9c0-1.4-1.6-2.3-5.5-2.6l2.7-5.5
		c-9.1-1.4-14.7-8-14.7-17.7c0-10.3,7.1-18.7,20.2-18.7c2.9,0,6,0.5,8.4,1.4l-1.7,8.1c-1.3-0.6-3.2-1.1-6.1-1.1
		c-5.8,0-9.5,4.1-9.4,9.9c0,6.5,4.3,9.9,9.6,9.9c2.6,0,4.6-0.4,6.3-1.1L256.7,56.1z"/>
	<path fill="#E4E5F3" d="M283,57l-0.6-3.5h-0.2c-2.3,2.8-5.9,4.3-10.1,4.3c-7.1,0-11.4-5.2-11.4-10.8c0-9.1,8.2-13.5,20.7-13.5V33
		c0-1.9-1-4.5-6.4-4.5c-3.6,0-7.4,1.2-9.7,2.7l-2-7.1c2.4-1.4,7.3-3.1,13.7-3.1c11.7,0,15.5,6.9,15.5,15.2v12.2
		c0,3.4,0.1,6.6,0.5,8.6H283z M281.7,40.4c-5.8-0.1-10.2,1.3-10.2,5.5c0,2.8,1.9,4.2,4.3,4.2c2.7,0,5-1.8,5.7-4
		c0.1-0.6,0.2-1.2,0.2-1.9V40.4z"/>
	<path fill="#FFFFFF" d="M301.4,8.5H331v9h-18.6v11.1h17.4v8.9h-17.4V57h-11V8.5z"/>
	<path fill="#FFFFFF" d="M356.2,57l-0.6-3.5h-0.2c-2.3,2.8-5.9,4.3-10.1,4.3c-7.1,0-11.4-5.2-11.4-10.8c0-9.1,8.2-13.5,20.7-13.5V33
		c0-1.9-1-4.5-6.4-4.5c-3.6,0-7.4,1.2-9.7,2.7l-2-7.1c2.4-1.4,7.3-3.1,13.7-3.1c11.7,0,15.5,6.9,15.5,15.2v12.2
		c0,3.4,0.1,6.6,0.5,8.6H356.2z M354.9,40.4c-5.8-0.1-10.2,1.3-10.2,5.5c0,2.8,1.9,4.2,4.3,4.2c2.7,0,5-1.8,5.7-4
		c0.1-0.6,0.2-1.2,0.2-1.9V40.4z M362.1,6.5l-8.8,10.9h-7.6L352,6.5H362.1z"/>
	<path fill="#FFFFFF" d="M400.6,56.1c-1.9,0.9-5.6,1.6-9.8,1.6c-11.4,0-18.6-6.9-18.6-18c0-10.3,7.1-18.7,20.2-18.7
		c2.9,0,6,0.5,8.4,1.4l-1.7,8.1c-1.3-0.6-3.2-1.1-6.1-1.1c-5.8,0-9.5,4.1-9.4,9.9c0,6.5,4.3,9.9,9.6,9.9c2.6,0,4.6-0.4,6.3-1.1
		L400.6,56.1z"/>
	<path fill="#FFFFFF" d="M417.9,12c0,3-2.3,5.5-5.9,5.5c-3.5,0-5.8-2.4-5.7-5.5c-0.1-3.2,2.2-5.5,5.8-5.5S417.9,8.8,417.9,12z
		 M406.6,57V21.8h10.9V57H406.6z"/>
	<path fill="#FFFFFF" d="M426.4,5.9h10.9V57h-10.9V5.9z"/>
</g>
</svg>
